<svg width="154" height="153" viewBox="0 0 154 153" fill="none" xmlns="http://www.w3.org/2000/svg">
<path d="M97.1443 4.98271L96.2202 3.48869L94.673 4.32053L78.2196 13.1662L62.1357 3.66519L60.6232 2.77172L59.6397 4.22733L49.1817 19.706L30.5248 18.7679L28.7703 18.6797L28.576 20.4256L26.5092 38.9914L9.55338 46.831L7.95887 47.5682L8.59814 49.2044L15.3961 66.6041L4.02565 81.4255L2.95638 82.8193L4.28283 83.971L18.3881 96.2185L15.208 114.626L14.9089 116.357L16.6187 116.761L34.8 121.05L40.5386 138.827L41.0782 140.499L42.7796 140.062L60.8718 135.411L74.2146 148.485L75.4693 149.714L76.7726 148.536L90.631 136.01L108.521 141.386L110.204 141.891L110.81 140.243L117.26 122.711L135.599 119.157L137.324 118.823L137.095 117.081L134.658 98.5603L149.245 86.8907L150.617 85.7933L149.605 84.3576L138.84 69.0904L146.333 51.9786L147.038 50.3694L145.475 49.5686L128.848 41.0526L127.531 22.4186L127.407 20.6663L125.65 20.6838L106.971 20.87L97.1443 4.98271Z" fill="#F92E15" stroke="white" stroke-width="3.7331"/>
</svg>
